<svg width="24" height="24" viewBox="0 0 24 24" fill="none" xmlns="http://www.w3.org/2000/svg" class="svg-gps-missing">
  <defs>
    <style>
      .svg-gps-missing .cls-1 {
        fill: #fff;
      }
    </style>
  </defs>
  <path class="cls-1" data-class="cls-1" fill-rule="evenodd" clip-rule="evenodd" d="M19.94 11H21C21.55 11 22 11.45 22 12C22 12.55 21.55 13 21 13H19.94C19.49 16.62 16.62 19.49 13 19.94V21C13 21.55 12.55 22 12 22C11.45 22 11 21.55 11 21V19.94C7.38 19.49 4.51 16.62 4.06 13H3C2.45 13 2 12.55 2 12C2 11.45 2.45 11 3 11H4.06C4.51 7.38 7.38 4.51 11 4.06V3C11 2.45 11.45 2 12 2C12.55 2 13 2.45 13 3V4.06C16.62 4.51 19.49 7.38 19.94 11ZM6 12C6 15.31 8.69 18 12 18C15.31 18 18 15.31 18 12C18 8.69 15.31 6 12 6C8.69 6 6 8.69 6 12ZM11.9476 11.2159C11.9287 11.2304 11.9095 11.2451 11.8901 11.26C11.1001 11.85 10.7701 12.29 10.7701 12.96C10.7701 13.42 11.0501 13.77 11.6101 13.77C12.1324 13.77 12.2954 13.4884 12.5106 13.1165L12.5201 13.1C12.7101 12.65 12.9601 12.43 13.4801 12.05C14.2501 11.52 14.9001 10.99 14.9001 9.90002C14.9001 8.40002 13.6701 7.53003 11.9001 7.53003C10.9101 7.53003 10.1601 7.79003 9.69012 8.20003C9.34012 8.51003 9.12012 8.91003 9.12012 9.30003C9.12012 9.68003 9.37011 10.02 9.85011 10.02C10.1401 10.02 10.3201 9.90002 10.5301 9.68002C10.8201 9.29002 11.2001 9.11003 11.7001 9.11003C12.3001 9.11003 12.8401 9.44003 12.8401 10.02C12.8401 10.5317 12.4766 10.8103 11.9476 11.2159ZM12.7001 15.48C12.7001 14.87 12.2001 14.48 11.5901 14.48C10.9801 14.48 10.4801 14.87 10.4801 15.48C10.4801 16.09 10.9801 16.48 11.5901 16.48C12.2001 16.48 12.7001 16.09 12.7001 15.48Z" />
</svg>