<svg width="24" height="24" viewBox="0 0 24 24" fill="none" xmlns="http://www.w3.org/2000/svg" class="svg-gps-fixed">
  <defs>
    <style>
      .svg-gps-fixed .cls-1 {
        fill: #fff;
      }
    </style>
  </defs>
  <path class="cls-1" data-class="cls-1" fill-rule="evenodd" clip-rule="evenodd" d="M19.94 11H21C21.55 11 22 11.45 22 12C22 12.55 21.55 13 21 13H19.94C19.49 16.62 16.62 19.49 13 19.94V21C13 21.55 12.55 22 12 22C11.45 22 11 21.55 11 21V19.94C7.38 19.49 4.51 16.62 4.06 13H3C2.45 13 2 12.55 2 12C2 11.45 2.45 11 3 11H4.06C4.51 7.38 7.38 4.51 11 4.06V3C11 2.45 11.45 2 12 2C12.55 2 13 2.45 13 3V4.06C16.62 4.51 19.49 7.38 19.94 11ZM6 12C6 15.31 8.69 18 12 18C15.31 18 18 15.31 18 12C18 8.69 15.31 6 12 6C8.69 6 6 8.69 6 12ZM15 12C15 13.6569 13.6569 15 12 15C10.3431 15 9 13.6569 9 12C9 10.3431 10.3431 9 12 9C13.6569 9 15 10.3431 15 12Z" />
</svg>